<?xml version="1.0" encoding="UTF-8" standalone="no"?>
<!DOCTYPE svg PUBLIC "-//W3C//DTD SVG 1.1//EN"
 "http://www.w3.org/Graphics/SVG/1.1/DTD/svg11.dtd">
<!-- Generated by graphviz version 2.40.1 (20161225.0304)
 -->
<!-- Title: tree Pages: 1 -->
<svg width="2364pt" height="540pt"
 viewBox="0.00 0.00 2363.52 540.00" xmlns="http://www.w3.org/2000/svg" xmlns:xlink="http://www.w3.org/1999/xlink">
<g id="graph0" class="graph" transform="scale(1 1) rotate(0) translate(4 536)">
<title>tree</title>
<polygon fill="#ffffff" stroke="transparent" points="-4,4 -4,-536 2359.5232,-536 2359.5232,4 -4,4"/>
<g id="clust1" class="cluster">
<title>cluster_application</title>
<polygon fill="none" stroke="#000000" points="8,-81 8,-451 1868.4164,-451 1868.4164,-81 8,-81"/>
<text text-anchor="middle" x="938.2082" y="-434.4" font-family="Times,serif" font-size="14.00" fill="#000000">application.js</text>
</g>
<g id="clust2" class="cluster">
<title>cluster_context</title>
<polygon fill="none" stroke="#000000" points="1352.8648,-459 1352.8648,-524 1421.97,-524 1421.97,-459 1352.8648,-459"/>
<text text-anchor="middle" x="1387.4174" y="-507.4" font-family="Times,serif" font-size="14.00" fill="#000000">context.js</text>
</g>
<g id="clust3" class="cluster">
<title>cluster_request</title>
<polygon fill="none" stroke="#000000" points="1893.6934,-213 1893.6934,-339 2347.5232,-339 2347.5232,-213 1893.6934,-213"/>
<text text-anchor="middle" x="2120.6083" y="-322.4" font-family="Times,serif" font-size="14.00" fill="#000000">request.js</text>
</g>
<g id="clust4" class="cluster">
<title>cluster_response</title>
<polygon fill="none" stroke="#000000" points="1889.4164,-79 1889.4164,-205 2292.3205,-205 2292.3205,-79 1889.4164,-79"/>
<text text-anchor="middle" x="2090.8685" y="-188.4" font-family="Times,serif" font-size="14.00" fill="#000000">response.js</text>
</g>
<g id="clust5" class="cluster">
<title>cluster_compose</title>
<polygon fill="none" stroke="#000000" points="1056.389,-8 1056.389,-73 1442.5516,-73 1442.5516,-8 1056.389,-8"/>
<text text-anchor="middle" x="1249.4703" y="-56.4" font-family="Times,serif" font-size="14.00" fill="#000000">koa&#45;compose</text>
</g>
<!-- Application -->
<g id="node1" class="node">
<title>Application</title>
<path fill="#e5e5e5" stroke="#000000" d="M111.5229,-400.3008C111.5229,-400.3008 45.7275,-400.3008 45.7275,-400.3008 41.6272,-400.3008 37.5269,-396.2005 37.5269,-392.1003 37.5269,-392.1003 37.5269,-383.8997 37.5269,-383.8997 37.5269,-379.7995 41.6272,-375.6992 45.7275,-375.6992 45.7275,-375.6992 111.5229,-375.6992 111.5229,-375.6992 115.6232,-375.6992 119.7235,-379.7995 119.7235,-383.8997 119.7235,-383.8997 119.7235,-392.1003 119.7235,-392.1003 119.7235,-396.2005 115.6232,-400.3008 111.5229,-400.3008"/>
<text text-anchor="middle" x="78.6252" y="-383.8" font-family="Times,serif" font-size="14.00" fill="#000000">Application</text>
</g>
<!-- EventEmitter -->
<g id="node2" class="node">
<title>EventEmitter</title>
<path fill="#e5e5e5" stroke="#000000" d="M350.5748,-400.3008C350.5748,-400.3008 276.6786,-400.3008 276.6786,-400.3008 272.5783,-400.3008 268.478,-396.2005 268.478,-392.1003 268.478,-392.1003 268.478,-383.8997 268.478,-383.8997 268.478,-379.7995 272.5783,-375.6992 276.6786,-375.6992 276.6786,-375.6992 350.5748,-375.6992 350.5748,-375.6992 354.6751,-375.6992 358.7754,-379.7995 358.7754,-383.8997 358.7754,-383.8997 358.7754,-392.1003 358.7754,-392.1003 358.7754,-396.2005 354.6751,-400.3008 350.5748,-400.3008"/>
<text text-anchor="middle" x="313.6267" y="-383.8" font-family="Times,serif" font-size="14.00" fill="#000000">EventEmitter</text>
</g>
<!-- Application&#45;&gt;EventEmitter -->
<g id="edge1" class="edge">
<title>Application&#45;&gt;EventEmitter</title>
<path fill="none" stroke="#000000" d="M119.8283,-388C158.2566,-388 215.867,-388 258.2921,-388"/>
<polygon fill="#000000" stroke="#000000" points="258.4574,-391.5001 268.4573,-388 258.4573,-384.5001 258.4574,-391.5001"/>
<text text-anchor="middle" x="199.6326" y="-392.2" font-family="Times,serif" font-size="14.00" fill="#000000">extends</text>
</g>
<!-- Application.middleware -->
<g id="node3" class="node">
<title>Application.middleware</title>
<path fill="#e5e5e5" stroke="#000000" d="M923.3761,-137.3008C923.3761,-137.3008 788.4145,-137.3008 788.4145,-137.3008 784.3142,-137.3008 780.214,-133.2005 780.214,-129.1003 780.214,-129.1003 780.214,-120.8997 780.214,-120.8997 780.214,-116.7995 784.3142,-112.6992 788.4145,-112.6992 788.4145,-112.6992 923.3761,-112.6992 923.3761,-112.6992 927.4764,-112.6992 931.5766,-116.7995 931.5766,-120.8997 931.5766,-120.8997 931.5766,-129.1003 931.5766,-129.1003 931.5766,-133.2005 927.4764,-137.3008 923.3761,-137.3008"/>
<text text-anchor="middle" x="855.8953" y="-120.8" font-family="Times,serif" font-size="14.00" fill="#000000">Application.middleware</text>
</g>
<!-- compose() -->
<g id="node25" class="node">
<title>compose()</title>
<path fill="#e5e5e5" stroke="#000000" d="M1131.3169,-40.3008C1131.3169,-40.3008 1072.5467,-40.3008 1072.5467,-40.3008 1068.4464,-40.3008 1064.3462,-36.2005 1064.3462,-32.1003 1064.3462,-32.1003 1064.3462,-23.8997 1064.3462,-23.8997 1064.3462,-19.7995 1068.4464,-15.6992 1072.5467,-15.6992 1072.5467,-15.6992 1131.3169,-15.6992 1131.3169,-15.6992 1135.4172,-15.6992 1139.5174,-19.7995 1139.5174,-23.8997 1139.5174,-23.8997 1139.5174,-32.1003 1139.5174,-32.1003 1139.5174,-36.2005 1135.4172,-40.3008 1131.3169,-40.3008"/>
<text text-anchor="middle" x="1101.9318" y="-23.8" font-family="Times,serif" font-size="14.00" fill="#000000">compose()</text>
</g>
<!-- Application.middleware&#45;&gt;compose() -->
<g id="edge20" class="edge">
<title>Application.middleware&#45;&gt;compose()</title>
<path fill="none" stroke="#0000ff" d="M887.3059,-112.6164C931.6355,-95.1394 1012.5783,-63.2276 1061.3938,-43.9821"/>
<polygon fill="#0000ff" stroke="#0000ff" points="1062.6888,-47.2338 1070.7082,-40.3099 1060.1214,-40.7216 1062.6888,-47.2338"/>
<text text-anchor="middle" x="1004.4772" y="-86.2" font-family="Times,serif" font-size="14.00" fill="#000000">1.合并中间件</text>
</g>
<!-- Application.context -->
<g id="node4" class="node">
<title>Application.context</title>
<path fill="#e5e5e5" stroke="#000000" d="M1294.9871,-296.3008C1294.9871,-296.3008 1184.7707,-296.3008 1184.7707,-296.3008 1180.6704,-296.3008 1176.5702,-292.2005 1176.5702,-288.1003 1176.5702,-288.1003 1176.5702,-279.8997 1176.5702,-279.8997 1176.5702,-275.7995 1180.6704,-271.6992 1184.7707,-271.6992 1184.7707,-271.6992 1294.9871,-271.6992 1294.9871,-271.6992 1299.0874,-271.6992 1303.1876,-275.7995 1303.1876,-279.8997 1303.1876,-279.8997 1303.1876,-288.1003 1303.1876,-288.1003 1303.1876,-292.2005 1299.0874,-296.3008 1294.9871,-296.3008"/>
<text text-anchor="middle" x="1239.8789" y="-279.8" font-family="Times,serif" font-size="14.00" fill="#000000">Application.context</text>
</g>
<!-- Application.context.app -->
<g id="node5" class="node">
<title>Application.context.app</title>
<path fill="#e5e5e5" stroke="#000000" d="M1628.0188,-357.3008C1628.0188,-357.3008 1494.372,-357.3008 1494.372,-357.3008 1490.2717,-357.3008 1486.1714,-353.2005 1486.1714,-349.1003 1486.1714,-349.1003 1486.1714,-340.8997 1486.1714,-340.8997 1486.1714,-336.7995 1490.2717,-332.6992 1494.372,-332.6992 1494.372,-332.6992 1628.0188,-332.6992 1628.0188,-332.6992 1632.1191,-332.6992 1636.2194,-336.7995 1636.2194,-340.8997 1636.2194,-340.8997 1636.2194,-349.1003 1636.2194,-349.1003 1636.2194,-353.2005 1632.1191,-357.3008 1628.0188,-357.3008"/>
<text text-anchor="middle" x="1561.1954" y="-340.8" font-family="Times,serif" font-size="14.00" fill="#000000">Application.context.app</text>
</g>
<!-- Application.context&#45;&gt;Application.context.app -->
<g id="edge10" class="edge">
<title>Application.context&#45;&gt;Application.context.app</title>
<path fill="none" stroke="#ff0000" d="M1303.3607,-296.0516C1355.8747,-306.0211 1430.5769,-320.2029 1486.0657,-330.7371"/>
<polygon fill="#ff0000" stroke="#ff0000" points="1485.716,-334.2331 1496.1934,-332.6598 1487.0217,-327.356 1485.716,-334.2331"/>
</g>
<!-- Application.context.req -->
<g id="node6" class="node">
<title>Application.context.req</title>
<path fill="#e5e5e5" stroke="#000000" d="M1627.1788,-296.3008C1627.1788,-296.3008 1495.212,-296.3008 1495.212,-296.3008 1491.1118,-296.3008 1487.0115,-292.2005 1487.0115,-288.1003 1487.0115,-288.1003 1487.0115,-279.8997 1487.0115,-279.8997 1487.0115,-275.7995 1491.1118,-271.6992 1495.212,-271.6992 1495.212,-271.6992 1627.1788,-271.6992 1627.1788,-271.6992 1631.279,-271.6992 1635.3793,-275.7995 1635.3793,-279.8997 1635.3793,-279.8997 1635.3793,-288.1003 1635.3793,-288.1003 1635.3793,-292.2005 1631.279,-296.3008 1627.1788,-296.3008"/>
<text text-anchor="middle" x="1561.1954" y="-279.8" font-family="Times,serif" font-size="14.00" fill="#000000">Application.context.req</text>
</g>
<!-- Application.context&#45;&gt;Application.context.req -->
<g id="edge11" class="edge">
<title>Application.context&#45;&gt;Application.context.req</title>
<path fill="none" stroke="#ff0000" d="M1303.3607,-284C1352.9307,-284 1422.2709,-284 1476.5596,-284"/>
<polygon fill="#ff0000" stroke="#ff0000" points="1476.8593,-287.5001 1486.8593,-284 1476.8592,-280.5001 1476.8593,-287.5001"/>
</g>
<!-- Application.context.res -->
<g id="node7" class="node">
<title>Application.context.res</title>
<path fill="#e5e5e5" stroke="#000000" d="M1626.1237,-113.3008C1626.1237,-113.3008 1496.2671,-113.3008 1496.2671,-113.3008 1492.1668,-113.3008 1488.0665,-109.2005 1488.0665,-105.1003 1488.0665,-105.1003 1488.0665,-96.8997 1488.0665,-96.8997 1488.0665,-92.7995 1492.1668,-88.6992 1496.2671,-88.6992 1496.2671,-88.6992 1626.1237,-88.6992 1626.1237,-88.6992 1630.224,-88.6992 1634.3243,-92.7995 1634.3243,-96.8997 1634.3243,-96.8997 1634.3243,-105.1003 1634.3243,-105.1003 1634.3243,-109.2005 1630.224,-113.3008 1626.1237,-113.3008"/>
<text text-anchor="middle" x="1561.1954" y="-96.8" font-family="Times,serif" font-size="14.00" fill="#000000">Application.context.res</text>
</g>
<!-- Application.context&#45;&gt;Application.context.res -->
<g id="edge13" class="edge">
<title>Application.context&#45;&gt;Application.context.res</title>
<path fill="none" stroke="#ff0000" d="M1250.5411,-271.6268C1267.7996,-252.1924 1303.6351,-214.2343 1340.2832,-190 1393.4857,-154.8187 1412.1896,-155.3318 1471.5516,-132 1484.9943,-126.7164 1499.7487,-121.4143 1513.338,-116.7266"/>
<polygon fill="#ff0000" stroke="#ff0000" points="1514.6588,-119.9741 1522.9917,-113.4309 1512.3972,-113.3495 1514.6588,-119.9741"/>
</g>
<!-- Application.context.request -->
<g id="node8" class="node">
<title>Application.context.request</title>
<path fill="#e5e5e5" stroke="#000000" d="M1638.2287,-235.3008C1638.2287,-235.3008 1484.1621,-235.3008 1484.1621,-235.3008 1480.0619,-235.3008 1475.9616,-231.2005 1475.9616,-227.1003 1475.9616,-227.1003 1475.9616,-218.8997 1475.9616,-218.8997 1475.9616,-214.7995 1480.0619,-210.6992 1484.1621,-210.6992 1484.1621,-210.6992 1638.2287,-210.6992 1638.2287,-210.6992 1642.3289,-210.6992 1646.4292,-214.7995 1646.4292,-218.8997 1646.4292,-218.8997 1646.4292,-227.1003 1646.4292,-227.1003 1646.4292,-231.2005 1642.3289,-235.3008 1638.2287,-235.3008"/>
<text text-anchor="middle" x="1561.1954" y="-218.8" font-family="Times,serif" font-size="14.00" fill="#000000">Application.context.request</text>
</g>
<!-- Application.context&#45;&gt;Application.context.request -->
<g id="edge15" class="edge">
<title>Application.context&#45;&gt;Application.context.request</title>
<path fill="none" stroke="#ff0000" d="M1303.3607,-271.9484C1355.8747,-261.9789 1430.5769,-247.7971 1486.0657,-237.2629"/>
<polygon fill="#ff0000" stroke="#ff0000" points="1487.0217,-240.644 1496.1934,-235.3402 1485.716,-233.7669 1487.0217,-240.644"/>
</g>
<!-- Application.context.response -->
<g id="node9" class="node">
<title>Application.context.response</title>
<path fill="#e5e5e5" stroke="#000000" d="M1642.7827,-174.3008C1642.7827,-174.3008 1479.6081,-174.3008 1479.6081,-174.3008 1475.5078,-174.3008 1471.4076,-170.2005 1471.4076,-166.1003 1471.4076,-166.1003 1471.4076,-157.8997 1471.4076,-157.8997 1471.4076,-153.7995 1475.5078,-149.6992 1479.6081,-149.6992 1479.6081,-149.6992 1642.7827,-149.6992 1642.7827,-149.6992 1646.883,-149.6992 1650.9832,-153.7995 1650.9832,-157.8997 1650.9832,-157.8997 1650.9832,-166.1003 1650.9832,-166.1003 1650.9832,-170.2005 1646.883,-174.3008 1642.7827,-174.3008"/>
<text text-anchor="middle" x="1561.1954" y="-157.8" font-family="Times,serif" font-size="14.00" fill="#000000">Application.context.response</text>
</g>
<!-- Application.context&#45;&gt;Application.context.response -->
<g id="edge17" class="edge">
<title>Application.context&#45;&gt;Application.context.response</title>
<path fill="none" stroke="#ff0000" d="M1263.8519,-271.5138C1283.9631,-261.2891 1313.598,-246.8006 1340.2832,-236 1397.2188,-212.9558 1464.341,-191.2119 1509.5301,-177.3345"/>
<polygon fill="#ff0000" stroke="#ff0000" points="1510.5684,-180.677 1519.1104,-174.4093 1508.5242,-173.9821 1510.5684,-180.677"/>
</g>
<!-- ctx -->
<g id="node20" class="node">
<title>ctx</title>
<path fill="#e5e5e5" stroke="#000000" d="M1395.8222,-491.3008C1395.8222,-491.3008 1379.0126,-491.3008 1379.0126,-491.3008 1374.9123,-491.3008 1370.812,-487.2005 1370.812,-483.1003 1370.812,-483.1003 1370.812,-474.8997 1370.812,-474.8997 1370.812,-470.7995 1374.9123,-466.6992 1379.0126,-466.6992 1379.0126,-466.6992 1395.8222,-466.6992 1395.8222,-466.6992 1399.9225,-466.6992 1404.0228,-470.7995 1404.0228,-474.8997 1404.0228,-474.8997 1404.0228,-483.1003 1404.0228,-483.1003 1404.0228,-487.2005 1399.9225,-491.3008 1395.8222,-491.3008"/>
<text text-anchor="middle" x="1387.4174" y="-474.8" font-family="Times,serif" font-size="14.00" fill="#000000">ctx</text>
</g>
<!-- Application.context&#45;&gt;ctx -->
<g id="edge5" class="edge">
<title>Application.context&#45;&gt;ctx</title>
<path fill="none" stroke="#000000" d="M1250.0322,-296.3921C1263.3878,-313.0802 1287.0595,-344.034 1303.2832,-373 1323.8161,-409.6597 1310.2919,-430.5712 1340.2832,-460 1346.0631,-465.6715 1353.7571,-469.7185 1361.2497,-472.5768"/>
<polygon fill="#000000" stroke="#000000" points="1360.2133,-475.9202 1370.8056,-475.6864 1362.3794,-469.2637 1360.2133,-475.9202"/>
</g>
<!-- http.IncomingMessage -->
<g id="node23" class="node">
<title>http.IncomingMessage</title>
<path fill="#e5e5e5" stroke="#000000" d="M2252.174,-306.3008C2252.174,-306.3008 2124.7446,-306.3008 2124.7446,-306.3008 2120.6443,-306.3008 2116.5441,-302.2005 2116.5441,-298.1003 2116.5441,-298.1003 2116.5441,-289.8997 2116.5441,-289.8997 2116.5441,-285.7995 2120.6443,-281.6992 2124.7446,-281.6992 2124.7446,-281.6992 2252.174,-281.6992 2252.174,-281.6992 2256.2743,-281.6992 2260.3745,-285.7995 2260.3745,-289.8997 2260.3745,-289.8997 2260.3745,-298.1003 2260.3745,-298.1003 2260.3745,-302.2005 2256.2743,-306.3008 2252.174,-306.3008"/>
<text text-anchor="middle" x="2188.4593" y="-289.8" font-family="Times,serif" font-size="14.00" fill="#000000">http.IncomingMessage</text>
</g>
<!-- Application.context.req&#45;&gt;http.IncomingMessage -->
<g id="edge12" class="edge">
<title>Application.context.req&#45;&gt;http.IncomingMessage</title>
<path fill="none" stroke="#ff0000" d="M1595.4358,-296.3205C1626.5608,-307.0838 1670.2926,-321 1688.3392,-321 1688.3392,-321 1688.3392,-321 1999.8954,-321 2040.8552,-321 2086.3191,-314.68 2122.3413,-308.1554"/>
<polygon fill="#ff0000" stroke="#ff0000" points="2123.0478,-311.5841 2132.2394,-306.3148 2121.768,-304.7021 2123.0478,-311.5841"/>
</g>
<!-- http.ServerResponse -->
<g id="node24" class="node">
<title>http.ServerResponse</title>
<path fill="#e5e5e5" stroke="#000000" d="M2246.2288,-111.3008C2246.2288,-111.3008 2130.6898,-111.3008 2130.6898,-111.3008 2126.5895,-111.3008 2122.4893,-107.2005 2122.4893,-103.1003 2122.4893,-103.1003 2122.4893,-94.8997 2122.4893,-94.8997 2122.4893,-90.7995 2126.5895,-86.6992 2130.6898,-86.6992 2130.6898,-86.6992 2246.2288,-86.6992 2246.2288,-86.6992 2250.3291,-86.6992 2254.4293,-90.7995 2254.4293,-94.8997 2254.4293,-94.8997 2254.4293,-103.1003 2254.4293,-103.1003 2254.4293,-107.2005 2250.3291,-111.3008 2246.2288,-111.3008"/>
<text text-anchor="middle" x="2188.4593" y="-94.8" font-family="Times,serif" font-size="14.00" fill="#000000">http.ServerResponse</text>
</g>
<!-- Application.context.res&#45;&gt;http.ServerResponse -->
<g id="edge14" class="edge">
<title>Application.context.res&#45;&gt;http.ServerResponse</title>
<path fill="none" stroke="#ff0000" d="M1594.6866,-88.6246C1620.0355,-80.3608 1655.9072,-71 1688.3392,-71 1688.3392,-71 1688.3392,-71 1999.8954,-71 2041.6426,-71 2088.0304,-77.7981 2124.3498,-84.695"/>
<polygon fill="#ff0000" stroke="#ff0000" points="2123.8296,-88.1594 2134.3145,-86.6373 2125.1689,-81.2887 2123.8296,-88.1594"/>
</g>
<!-- Application.request -->
<g id="node10" class="node">
<title>Application.request</title>
<path fill="#e5e5e5" stroke="#000000" d="M1847.9505,-241.3008C1847.9505,-241.3008 1738.3051,-241.3008 1738.3051,-241.3008 1734.2049,-241.3008 1730.1046,-237.2005 1730.1046,-233.1003 1730.1046,-233.1003 1730.1046,-224.8997 1730.1046,-224.8997 1730.1046,-220.7995 1734.2049,-216.6992 1738.3051,-216.6992 1738.3051,-216.6992 1847.9505,-216.6992 1847.9505,-216.6992 1852.0507,-216.6992 1856.151,-220.7995 1856.151,-224.8997 1856.151,-224.8997 1856.151,-233.1003 1856.151,-233.1003 1856.151,-237.2005 1852.0507,-241.3008 1847.9505,-241.3008"/>
<text text-anchor="middle" x="1793.1278" y="-224.8" font-family="Times,serif" font-size="14.00" fill="#000000">Application.request</text>
</g>
<!-- Application.context.request&#45;&gt;Application.request -->
<g id="edge16" class="edge">
<title>Application.context.request&#45;&gt;Application.request</title>
<path fill="none" stroke="#ff0000" d="M1646.5704,-225.2086C1670.6482,-225.8315 1696.6209,-226.5034 1719.9169,-227.1061"/>
<polygon fill="#ff0000" stroke="#ff0000" points="1719.9812,-230.6088 1730.0684,-227.3687 1720.1623,-223.6111 1719.9812,-230.6088"/>
</g>
<!-- Application.response -->
<g id="node11" class="node">
<title>Application.response</title>
<path fill="#e5e5e5" stroke="#000000" d="M1852.0051,-173.3008C1852.0051,-173.3008 1734.2505,-173.3008 1734.2505,-173.3008 1730.1502,-173.3008 1726.0499,-169.2005 1726.0499,-165.1003 1726.0499,-165.1003 1726.0499,-156.8997 1726.0499,-156.8997 1726.0499,-152.7995 1730.1502,-148.6992 1734.2505,-148.6992 1734.2505,-148.6992 1852.0051,-148.6992 1852.0051,-148.6992 1856.1054,-148.6992 1860.2057,-152.7995 1860.2057,-156.8997 1860.2057,-156.8997 1860.2057,-165.1003 1860.2057,-165.1003 1860.2057,-169.2005 1856.1054,-173.3008 1852.0051,-173.3008"/>
<text text-anchor="middle" x="1793.1278" y="-156.8" font-family="Times,serif" font-size="14.00" fill="#000000">Application.response</text>
</g>
<!-- Application.context.response&#45;&gt;Application.response -->
<g id="edge18" class="edge">
<title>Application.context.response&#45;&gt;Application.response</title>
<path fill="none" stroke="#ff0000" d="M1650.8665,-161.6134C1672.3376,-161.5208 1695.0782,-161.4228 1715.9292,-161.3328"/>
<polygon fill="#ff0000" stroke="#ff0000" points="1716.0148,-164.8326 1725.9996,-161.2894 1715.9845,-157.8327 1716.0148,-164.8326"/>
</g>
<!-- request -->
<g id="node21" class="node">
<title>request</title>
<path fill="#e5e5e5" stroke="#000000" d="M1950.132,-245.3008C1950.132,-245.3008 1909.6798,-245.3008 1909.6798,-245.3008 1905.5796,-245.3008 1901.4793,-241.2005 1901.4793,-237.1003 1901.4793,-237.1003 1901.4793,-228.8997 1901.4793,-228.8997 1901.4793,-224.7995 1905.5796,-220.6992 1909.6798,-220.6992 1909.6798,-220.6992 1950.132,-220.6992 1950.132,-220.6992 1954.2322,-220.6992 1958.3325,-224.7995 1958.3325,-228.8997 1958.3325,-228.8997 1958.3325,-237.1003 1958.3325,-237.1003 1958.3325,-241.2005 1954.2322,-245.3008 1950.132,-245.3008"/>
<text text-anchor="middle" x="1929.9059" y="-228.8" font-family="Times,serif" font-size="14.00" fill="#000000">request</text>
</g>
<!-- Application.request&#45;&gt;request -->
<g id="edge6" class="edge">
<title>Application.request&#45;&gt;request</title>
<path fill="none" stroke="#000000" d="M1856.312,-230.8478C1868.3,-231.1984 1880.5026,-231.5552 1891.4348,-231.8749"/>
<polygon fill="#000000" stroke="#000000" points="1891.3804,-235.3747 1901.4785,-232.1687 1891.5851,-228.3777 1891.3804,-235.3747"/>
</g>
<!-- response -->
<g id="node22" class="node">
<title>response</title>
<path fill="#e5e5e5" stroke="#000000" d="M1954.1844,-172.3008C1954.1844,-172.3008 1905.6274,-172.3008 1905.6274,-172.3008 1901.5272,-172.3008 1897.4269,-168.2005 1897.4269,-164.1003 1897.4269,-164.1003 1897.4269,-155.8997 1897.4269,-155.8997 1897.4269,-151.7995 1901.5272,-147.6992 1905.6274,-147.6992 1905.6274,-147.6992 1954.1844,-147.6992 1954.1844,-147.6992 1958.2846,-147.6992 1962.3849,-151.7995 1962.3849,-155.8997 1962.3849,-155.8997 1962.3849,-164.1003 1962.3849,-164.1003 1962.3849,-168.2005 1958.2846,-172.3008 1954.1844,-172.3008"/>
<text text-anchor="middle" x="1929.9059" y="-155.8" font-family="Times,serif" font-size="14.00" fill="#000000">response</text>
</g>
<!-- Application.response&#45;&gt;response -->
<g id="edge7" class="edge">
<title>Application.response&#45;&gt;response</title>
<path fill="none" stroke="#000000" d="M1860.3148,-160.5088C1869.4406,-160.4421 1878.5949,-160.3751 1887.1276,-160.3128"/>
<polygon fill="#000000" stroke="#000000" points="1887.2094,-163.8124 1897.1835,-160.2392 1887.1582,-156.8125 1887.2094,-163.8124"/>
</g>
<!-- Application.listen() -->
<g id="node12" class="node">
<title>Application.listen()</title>
<path fill="#e5e5e5" stroke="#000000" d="M133.1753,-315.3008C133.1753,-315.3008 24.0751,-315.3008 24.0751,-315.3008 19.9748,-315.3008 15.8745,-311.2005 15.8745,-307.1003 15.8745,-307.1003 15.8745,-298.8997 15.8745,-298.8997 15.8745,-294.7995 19.9748,-290.6992 24.0751,-290.6992 24.0751,-290.6992 133.1753,-290.6992 133.1753,-290.6992 137.2756,-290.6992 141.3759,-294.7995 141.3759,-298.8997 141.3759,-298.8997 141.3759,-307.1003 141.3759,-307.1003 141.3759,-311.2005 137.2756,-315.3008 133.1753,-315.3008"/>
<text text-anchor="middle" x="78.6252" y="-298.8" font-family="Times,serif" font-size="14.00" fill="#000000">Application.listen()</text>
</g>
<!-- http.createServer -->
<g id="node13" class="node">
<title>http.createServer</title>
<path fill="#e5e5e5" stroke="#000000" d="M361.1502,-315.3008C361.1502,-315.3008 266.1032,-315.3008 266.1032,-315.3008 262.0029,-315.3008 257.9027,-311.2005 257.9027,-307.1003 257.9027,-307.1003 257.9027,-298.8997 257.9027,-298.8997 257.9027,-294.7995 262.0029,-290.6992 266.1032,-290.6992 266.1032,-290.6992 361.1502,-290.6992 361.1502,-290.6992 365.2505,-290.6992 369.3507,-294.7995 369.3507,-298.8997 369.3507,-298.8997 369.3507,-307.1003 369.3507,-307.1003 369.3507,-311.2005 365.2505,-315.3008 361.1502,-315.3008"/>
<text text-anchor="middle" x="313.6267" y="-298.8" font-family="Times,serif" font-size="14.00" fill="#000000">http.createServer</text>
</g>
<!-- Application.listen()&#45;&gt;http.createServer -->
<g id="edge2" class="edge">
<title>Application.listen()&#45;&gt;http.createServer</title>
<path fill="none" stroke="#000000" d="M141.2926,-303C174.1927,-303 214.4861,-303 247.8366,-303"/>
<polygon fill="#000000" stroke="#000000" points="247.948,-306.5001 257.948,-303 247.948,-299.5001 247.948,-306.5001"/>
</g>
<!-- Application.callback() -->
<g id="node14" class="node">
<title>Application.callback()</title>
<path fill="#e5e5e5" stroke="#000000" d="M577.3773,-315.3008C577.3773,-315.3008 452.6589,-315.3008 452.6589,-315.3008 448.5587,-315.3008 444.4584,-311.2005 444.4584,-307.1003 444.4584,-307.1003 444.4584,-298.8997 444.4584,-298.8997 444.4584,-294.7995 448.5587,-290.6992 452.6589,-290.6992 452.6589,-290.6992 577.3773,-290.6992 577.3773,-290.6992 581.4775,-290.6992 585.5778,-294.7995 585.5778,-298.8997 585.5778,-298.8997 585.5778,-307.1003 585.5778,-307.1003 585.5778,-311.2005 581.4775,-315.3008 577.3773,-315.3008"/>
<text text-anchor="middle" x="515.0181" y="-298.8" font-family="Times,serif" font-size="14.00" fill="#000000">Application.callback()</text>
</g>
<!-- http.createServer&#45;&gt;Application.callback() -->
<g id="edge3" class="edge">
<title>http.createServer&#45;&gt;Application.callback()</title>
<path fill="none" stroke="#000000" d="M369.458,-303C389.456,-303 412.4216,-303 434.1118,-303"/>
<polygon fill="#000000" stroke="#000000" points="434.3043,-306.5001 444.3043,-303 434.3043,-299.5001 434.3043,-306.5001"/>
</g>
<!-- Application.callback()&#45;&gt;Application.middleware -->
<g id="edge19" class="edge">
<title>Application.callback()&#45;&gt;Application.middleware</title>
<path fill="none" stroke="#0000ff" d="M538.7173,-290.6247C598.2722,-259.5262 754.3169,-178.0424 822.8318,-142.2652"/>
<polygon fill="#0000ff" stroke="#0000ff" points="824.6553,-145.2615 831.8995,-137.5302 821.4152,-139.0565 824.6553,-145.2615"/>
<text text-anchor="middle" x="676.5114" y="-250.2" font-family="Times,serif" font-size="14.00" fill="#000000">1.合并中间件</text>
</g>
<!-- Application.createContext() -->
<g id="node16" class="node">
<title>Application.createContext()</title>
<path fill="#e5e5e5" stroke="#000000" d="M933.8565,-310.3008C933.8565,-310.3008 777.9341,-310.3008 777.9341,-310.3008 773.8338,-310.3008 769.7336,-306.2005 769.7336,-302.1003 769.7336,-302.1003 769.7336,-293.8997 769.7336,-293.8997 769.7336,-289.7995 773.8338,-285.6992 777.9341,-285.6992 777.9341,-285.6992 933.8565,-285.6992 933.8565,-285.6992 937.9568,-285.6992 942.057,-289.7995 942.057,-293.8997 942.057,-293.8997 942.057,-302.1003 942.057,-302.1003 942.057,-306.2005 937.9568,-310.3008 933.8565,-310.3008"/>
<text text-anchor="middle" x="855.8953" y="-293.8" font-family="Times,serif" font-size="14.00" fill="#000000">Application.createContext()</text>
</g>
<!-- Application.callback()&#45;&gt;Application.createContext() -->
<g id="edge21" class="edge">
<title>Application.callback()&#45;&gt;Application.createContext()</title>
<path fill="none" stroke="#0000ff" d="M585.6481,-301.964C635.9499,-301.2262 704.1602,-300.2257 759.4671,-299.4144"/>
<polygon fill="#0000ff" stroke="#0000ff" points="759.6891,-302.9116 769.6367,-299.2652 759.5864,-295.9124 759.6891,-302.9116"/>
<text text-anchor="middle" x="676.5114" y="-305.2" font-family="Times,serif" font-size="14.00" fill="#000000">2.创建ctx并赋值</text>
</g>
<!-- Application.handleRequest() -->
<g id="node17" class="node">
<title>Application.handleRequest()</title>
<path fill="#e5e5e5" stroke="#000000" d="M936.5353,-409.3008C936.5353,-409.3008 775.2553,-409.3008 775.2553,-409.3008 771.155,-409.3008 767.0548,-405.2005 767.0548,-401.1003 767.0548,-401.1003 767.0548,-392.8997 767.0548,-392.8997 767.0548,-388.7995 771.155,-384.6992 775.2553,-384.6992 775.2553,-384.6992 936.5353,-384.6992 936.5353,-384.6992 940.6356,-384.6992 944.7358,-388.7995 944.7358,-392.8997 944.7358,-392.8997 944.7358,-401.1003 944.7358,-401.1003 944.7358,-405.2005 940.6356,-409.3008 936.5353,-409.3008"/>
<text text-anchor="middle" x="855.8953" y="-392.8" font-family="Times,serif" font-size="14.00" fill="#000000">Application.handleRequest()</text>
</g>
<!-- Application.callback()&#45;&gt;Application.handleRequest() -->
<g id="edge22" class="edge">
<title>Application.callback()&#45;&gt;Application.handleRequest()</title>
<path fill="none" stroke="#0000ff" d="M559.9324,-315.3855C622.0957,-332.5276 734.2487,-363.4548 801.2104,-381.9201"/>
<polygon fill="#0000ff" stroke="#0000ff" points="800.582,-385.3774 811.1527,-384.6618 802.4429,-378.6293 800.582,-385.3774"/>
<text text-anchor="middle" x="676.5114" y="-366.2" font-family="Times,serif" font-size="14.00" fill="#000000">3.处理响应</text>
</g>
<!-- Application.use() -->
<g id="node15" class="node">
<title>Application.use()</title>
<path fill="#e5e5e5" stroke="#000000" d="M563.3969,-137.3008C563.3969,-137.3008 466.6393,-137.3008 466.6393,-137.3008 462.539,-137.3008 458.4387,-133.2005 458.4387,-129.1003 458.4387,-129.1003 458.4387,-120.8997 458.4387,-120.8997 458.4387,-116.7995 462.539,-112.6992 466.6393,-112.6992 466.6393,-112.6992 563.3969,-112.6992 563.3969,-112.6992 567.4972,-112.6992 571.5975,-116.7995 571.5975,-120.8997 571.5975,-120.8997 571.5975,-129.1003 571.5975,-129.1003 571.5975,-133.2005 567.4972,-137.3008 563.3969,-137.3008"/>
<text text-anchor="middle" x="515.0181" y="-120.8" font-family="Times,serif" font-size="14.00" fill="#000000">Application.use()</text>
</g>
<!-- Application.use()&#45;&gt;Application.middleware -->
<g id="edge8" class="edge">
<title>Application.use()&#45;&gt;Application.middleware</title>
<path fill="none" stroke="#000000" d="M571.6897,-125C625.6688,-125 707.6665,-125 769.736,-125"/>
<polygon fill="#000000" stroke="#000000" points="769.9087,-128.5001 779.9087,-125 769.9086,-121.5001 769.9087,-128.5001"/>
<text text-anchor="middle" x="676.5114" y="-129.2" font-family="Times,serif" font-size="14.00" fill="#000000">push</text>
</g>
<!-- Application.createContext()&#45;&gt;Application.context -->
<g id="edge9" class="edge">
<title>Application.createContext()&#45;&gt;Application.context</title>
<path fill="none" stroke="#ff0000" d="M942.0687,-294.8581C1009.5474,-292.3979 1102.3878,-289.0129 1166.3837,-286.6796"/>
<polygon fill="#ff0000" stroke="#ff0000" points="1166.5328,-290.1766 1176.3986,-286.3145 1166.2777,-283.1813 1166.5328,-290.1766"/>
<text text-anchor="middle" x="1158.1223" y="-273.7145" font-family="Times,serif" font-size="14.00" fill="#000000">赋值</text>
</g>
<!-- respond() -->
<g id="node18" class="node">
<title>respond()</title>
<path fill="#e5e5e5" stroke="#000000" d="M1266.3203,-415.3008C1266.3203,-415.3008 1213.4375,-415.3008 1213.4375,-415.3008 1209.3372,-415.3008 1205.237,-411.2005 1205.237,-407.1003 1205.237,-407.1003 1205.237,-398.8997 1205.237,-398.8997 1205.237,-394.7995 1209.3372,-390.6992 1213.4375,-390.6992 1213.4375,-390.6992 1266.3203,-390.6992 1266.3203,-390.6992 1270.4206,-390.6992 1274.5208,-394.7995 1274.5208,-398.8997 1274.5208,-398.8997 1274.5208,-407.1003 1274.5208,-407.1003 1274.5208,-411.2005 1270.4206,-415.3008 1266.3203,-415.3008"/>
<text text-anchor="middle" x="1239.8789" y="-398.8" font-family="Times,serif" font-size="14.00" fill="#000000">respond()</text>
</g>
<!-- Application.handleRequest()&#45;&gt;respond() -->
<g id="edge23" class="edge">
<title>Application.handleRequest()&#45;&gt;respond()</title>
<path fill="none" stroke="#0000ff" d="M944.954,-398.3916C1023.2817,-399.6155 1134.0615,-401.3465 1195.1275,-402.3007"/>
<polygon fill="#0000ff" stroke="#0000ff" points="1195.1571,-405.8015 1205.2106,-402.4583 1195.2666,-398.8024 1195.1571,-405.8015"/>
<text text-anchor="middle" x="1101.9318" y="-405.2" font-family="Times,serif" font-size="14.00" fill="#000000">3.处理响应</text>
</g>
<!-- http.ServerResponse.end() -->
<g id="node19" class="node">
<title>http.ServerResponse.end()</title>
<path fill="#e5e5e5" stroke="#000000" d="M1635.0006,-418.3008C1635.0006,-418.3008 1487.3902,-418.3008 1487.3902,-418.3008 1483.2899,-418.3008 1479.1897,-414.2005 1479.1897,-410.1003 1479.1897,-410.1003 1479.1897,-401.8997 1479.1897,-401.8997 1479.1897,-397.7995 1483.2899,-393.6992 1487.3902,-393.6992 1487.3902,-393.6992 1635.0006,-393.6992 1635.0006,-393.6992 1639.1009,-393.6992 1643.2011,-397.7995 1643.2011,-401.8997 1643.2011,-401.8997 1643.2011,-410.1003 1643.2011,-410.1003 1643.2011,-414.2005 1639.1009,-418.3008 1635.0006,-418.3008"/>
<text text-anchor="middle" x="1561.1954" y="-401.8" font-family="Times,serif" font-size="14.00" fill="#000000">http.ServerResponse.end()</text>
</g>
<!-- respond()&#45;&gt;http.ServerResponse.end() -->
<g id="edge4" class="edge">
<title>respond()&#45;&gt;http.ServerResponse.end()</title>
<path fill="none" stroke="#000000" d="M1274.5707,-403.3239C1320.7043,-403.7546 1403.975,-404.5321 1468.9182,-405.1384"/>
<polygon fill="#000000" stroke="#000000" points="1469.1431,-408.6406 1479.1754,-405.2342 1469.2085,-401.6409 1469.1431,-408.6406"/>
</g>
<!-- delegates模块 -->
<g id="node26" class="node">
<title>delegates模块</title>
<path fill="#e5e5e5" stroke="#000000" d="M1599.74,-491.3008C1599.74,-491.3008 1522.6508,-491.3008 1522.6508,-491.3008 1518.5505,-491.3008 1514.4503,-487.2005 1514.4503,-483.1003 1514.4503,-483.1003 1514.4503,-474.8997 1514.4503,-474.8997 1514.4503,-470.7995 1518.5505,-466.6992 1522.6508,-466.6992 1522.6508,-466.6992 1599.74,-466.6992 1599.74,-466.6992 1603.8403,-466.6992 1607.9405,-470.7995 1607.9405,-474.8997 1607.9405,-474.8997 1607.9405,-483.1003 1607.9405,-483.1003 1607.9405,-487.2005 1603.8403,-491.3008 1599.74,-491.3008"/>
<text text-anchor="middle" x="1561.1954" y="-474.8" font-family="Times,serif" font-size="14.00" fill="#000000">delegates模块</text>
</g>
<!-- ctx&#45;&gt;delegates模块 -->
<g id="edge24" class="edge">
<title>ctx&#45;&gt;delegates模块</title>
<path fill="none" stroke="#000000" d="M1404.08,-479C1426.9665,-479 1469.2684,-479 1504.2171,-479"/>
<polygon fill="#000000" stroke="#000000" points="1504.326,-482.5001 1514.326,-479 1504.3259,-475.5001 1504.326,-482.5001"/>
<text text-anchor="middle" x="1501.1114" y="-466.4" font-family="Times,serif" font-size="14.00" fill="#000000">基于</text>
<text text-anchor="middle" x="1441.6063" y="-466.4" font-family="Times,serif" font-size="14.00" fill="#000000">挂载属性</text>
</g>
<!-- request&#45;&gt;http.IncomingMessage -->
<g id="edge25" class="edge">
<title>request&#45;&gt;http.IncomingMessage</title>
<path fill="none" stroke="#000000" d="M1958.5059,-241.5686C1980.0823,-247.8897 2010.4661,-256.4874 2037.3954,-263 2061.9823,-268.9461 2088.9975,-274.7258 2113.2996,-279.652"/>
<polygon fill="#000000" stroke="#000000" points="2112.6828,-283.0979 2123.1765,-281.6377 2114.0626,-276.2352 2112.6828,-283.0979"/>
<text text-anchor="middle" x="2109.9619" y="-269.0377" font-family="Times,serif" font-size="14.00" fill="#000000">基于</text>
<text text-anchor="middle" x="1987.2822" y="-245.7686" font-family="Times,serif" font-size="14.00" fill="#000000">封装属性</text>
</g>
<!-- parseurl/querystring/type&#45;is/fresh/content&#45;type模块 -->
<g id="node27" class="node">
<title>parseurl/querystring/type&#45;is/fresh/content&#45;type模块</title>
<path fill="#e5e5e5" stroke="#000000" d="M2331.3866,-245.3008C2331.3866,-245.3008 2045.532,-245.3008 2045.532,-245.3008 2041.4317,-245.3008 2037.3315,-241.2005 2037.3315,-237.1003 2037.3315,-237.1003 2037.3315,-228.8997 2037.3315,-228.8997 2037.3315,-224.7995 2041.4317,-220.6992 2045.532,-220.6992 2045.532,-220.6992 2331.3866,-220.6992 2331.3866,-220.6992 2335.4869,-220.6992 2339.5871,-224.7995 2339.5871,-228.8997 2339.5871,-228.8997 2339.5871,-237.1003 2339.5871,-237.1003 2339.5871,-241.2005 2335.4869,-245.3008 2331.3866,-245.3008"/>
<text text-anchor="middle" x="2188.4593" y="-228.8" font-family="Times,serif" font-size="14.00" fill="#000000">parseurl/querystring/type&#45;is/fresh/content&#45;type模块</text>
</g>
<!-- request&#45;&gt;parseurl/querystring/type&#45;is/fresh/content&#45;type模块 -->
<g id="edge26" class="edge">
<title>request&#45;&gt;parseurl/querystring/type&#45;is/fresh/content&#45;type模块</title>
<path fill="none" stroke="#000000" d="M1958.5635,-233C1976.3428,-233 2000.7669,-233 2027.0858,-233"/>
<polygon fill="#000000" stroke="#000000" points="2027.2556,-236.5001 2037.2556,-233 2027.2556,-229.5001 2027.2556,-236.5001"/>
<text text-anchor="middle" x="2024.041" y="-237.2" font-family="Times,serif" font-size="14.00" fill="#000000">基于</text>
<text text-anchor="middle" x="1987.3398" y="-220.4" font-family="Times,serif" font-size="14.00" fill="#000000">封装属性</text>
</g>
<!-- response&#45;&gt;http.ServerResponse -->
<g id="edge27" class="edge">
<title>response&#45;&gt;http.ServerResponse</title>
<path fill="none" stroke="#000000" d="M1962.6814,-150.2119C1983.8931,-144.0363 2012.161,-136.1028 2037.3954,-130 2061.9823,-124.0539 2088.9975,-118.2742 2113.2996,-113.348"/>
<polygon fill="#000000" stroke="#000000" points="2114.0626,-116.7648 2123.1765,-111.3623 2112.6828,-109.9021 2114.0626,-116.7648"/>
<text text-anchor="middle" x="2109.9619" y="-98.7623" font-family="Times,serif" font-size="14.00" fill="#000000">基于</text>
<text text-anchor="middle" x="1991.4577" y="-137.6119" font-family="Times,serif" font-size="14.00" fill="#000000">封装属性</text>
</g>
<!-- statuses/assert/type&#45;is/vary模块 -->
<g id="node28" class="node">
<title>statuses/assert/type&#45;is/vary模块</title>
<path fill="#e5e5e5" stroke="#000000" d="M2275.9814,-172.3008C2275.9814,-172.3008 2100.9372,-172.3008 2100.9372,-172.3008 2096.837,-172.3008 2092.7367,-168.2005 2092.7367,-164.1003 2092.7367,-164.1003 2092.7367,-155.8997 2092.7367,-155.8997 2092.7367,-151.7995 2096.837,-147.6992 2100.9372,-147.6992 2100.9372,-147.6992 2275.9814,-147.6992 2275.9814,-147.6992 2280.0816,-147.6992 2284.1819,-151.7995 2284.1819,-155.8997 2284.1819,-155.8997 2284.1819,-164.1003 2284.1819,-164.1003 2284.1819,-168.2005 2280.0816,-172.3008 2275.9814,-172.3008"/>
<text text-anchor="middle" x="2188.4593" y="-155.8" font-family="Times,serif" font-size="14.00" fill="#000000">statuses/assert/type&#45;is/vary模块</text>
</g>
<!-- response&#45;&gt;statuses/assert/type&#45;is/vary模块 -->
<g id="edge28" class="edge">
<title>response&#45;&gt;statuses/assert/type&#45;is/vary模块</title>
<path fill="none" stroke="#000000" d="M1962.3901,-160C1992.6517,-160 2039.4701,-160 2082.6683,-160"/>
<polygon fill="#000000" stroke="#000000" points="2082.6877,-163.5001 2092.6876,-160 2082.6876,-156.5001 2082.6877,-163.5001"/>
<text text-anchor="middle" x="2079.473" y="-147.4" font-family="Times,serif" font-size="14.00" fill="#000000">基于</text>
<text text-anchor="middle" x="1991.1664" y="-164.2" font-family="Times,serif" font-size="14.00" fill="#000000">封装属性</text>
</g>
<!-- 中间件引擎 -->
<g id="node29" class="node">
<title>中间件引擎</title>
<path fill="#e5e5e5" stroke="#000000" d="M1426.4856,-40.3008C1426.4856,-40.3008 1348.3492,-40.3008 1348.3492,-40.3008 1344.2489,-40.3008 1340.1486,-36.2005 1340.1486,-32.1003 1340.1486,-32.1003 1340.1486,-23.8997 1340.1486,-23.8997 1340.1486,-19.7995 1344.2489,-15.6992 1348.3492,-15.6992 1348.3492,-15.6992 1426.4856,-15.6992 1426.4856,-15.6992 1430.5859,-15.6992 1434.6862,-19.7995 1434.6862,-23.8997 1434.6862,-23.8997 1434.6862,-32.1003 1434.6862,-32.1003 1434.6862,-36.2005 1430.5859,-40.3008 1426.4856,-40.3008"/>
<text text-anchor="middle" x="1387.4174" y="-23.8" font-family="Times,serif" font-size="14.00" fill="#000000">中间件引擎</text>
</g>
<!-- compose()&#45;&gt;中间件引擎 -->
<g id="edge29" class="edge">
<title>compose()&#45;&gt;中间件引擎</title>
<path fill="none" stroke="#000000" d="M1139.5476,-28C1191.1783,-28 1283.9846,-28 1340.2171,-28"/>
</g>
</g>
</svg>
